<mxfile host="app.diagrams.net" modified="2021-08-25T16:08:03.939Z" agent="5.0 (Macintosh; Intel Mac OS X 10_15_7) AppleWebKit/537.36 (KHTML, like Gecko) Chrome/92.0.4515.159 Safari/537.36" etag="X8CQ491EbvtHgqtZlZr7" version="14.9.2" type="github">
  <diagram id="Kk8rFfQnUfUUcLFS3EZy" name="Page-1">
    <mxGraphModel dx="1773" dy="545" grid="1" gridSize="10" guides="1" tooltips="1" connect="1" arrows="1" fold="1" page="1" pageScale="1" pageWidth="827" pageHeight="1169" math="0" shadow="0">
      <root>
        <mxCell id="0" />
        <mxCell id="1" parent="0" />
        <mxCell id="M2eLKhpz11m8mpupI5gd-30" value="" style="shape=cylinder3;whiteSpace=wrap;html=1;boundedLbl=1;backgroundOutline=1;size=15;fillColor=#f5f5f5;strokeColor=#666666;fontColor=#333333;" vertex="1" parent="1">
          <mxGeometry x="70" y="440" width="60" height="80" as="geometry" />
        </mxCell>
        <mxCell id="M2eLKhpz11m8mpupI5gd-1" value="work" style="rounded=0;whiteSpace=wrap;html=1;" vertex="1" parent="1">
          <mxGeometry x="165" y="160" width="120" height="60" as="geometry" />
        </mxCell>
        <mxCell id="M2eLKhpz11m8mpupI5gd-2" value="work" style="rounded=0;whiteSpace=wrap;html=1;" vertex="1" parent="1">
          <mxGeometry x="195" y="170" width="120" height="60" as="geometry" />
        </mxCell>
        <mxCell id="M2eLKhpz11m8mpupI5gd-3" value="sheudlar" style="rounded=0;whiteSpace=wrap;html=1;" vertex="1" parent="1">
          <mxGeometry x="459" y="180" width="156" height="110" as="geometry" />
        </mxCell>
        <mxCell id="M2eLKhpz11m8mpupI5gd-10" style="edgeStyle=orthogonalEdgeStyle;rounded=0;orthogonalLoop=1;jettySize=auto;html=1;" edge="1" parent="1" source="M2eLKhpz11m8mpupI5gd-4" target="M2eLKhpz11m8mpupI5gd-5">
          <mxGeometry relative="1" as="geometry" />
        </mxCell>
        <mxCell id="M2eLKhpz11m8mpupI5gd-13" style="edgeStyle=orthogonalEdgeStyle;rounded=0;orthogonalLoop=1;jettySize=auto;html=1;entryX=0;entryY=0.5;entryDx=0;entryDy=0;" edge="1" parent="1" source="M2eLKhpz11m8mpupI5gd-4" target="M2eLKhpz11m8mpupI5gd-3">
          <mxGeometry relative="1" as="geometry" />
        </mxCell>
        <mxCell id="M2eLKhpz11m8mpupI5gd-4" value="work" style="rounded=0;whiteSpace=wrap;html=1;fillColor=#d5e8d4;strokeColor=#82b366;" vertex="1" parent="1">
          <mxGeometry x="225" y="190" width="120" height="60" as="geometry" />
        </mxCell>
        <mxCell id="M2eLKhpz11m8mpupI5gd-5" value="ots(habse)" style="rounded=0;whiteSpace=wrap;html=1;fillColor=#f5f5f5;strokeColor=#666666;fontColor=#333333;" vertex="1" parent="1">
          <mxGeometry x="155" y="300" width="120" height="60" as="geometry" />
        </mxCell>
        <mxCell id="M2eLKhpz11m8mpupI5gd-9" style="edgeStyle=orthogonalEdgeStyle;rounded=0;orthogonalLoop=1;jettySize=auto;html=1;exitX=0.5;exitY=1;exitDx=0;exitDy=0;entryX=0.9;entryY=0.017;entryDx=0;entryDy=0;entryPerimeter=0;" edge="1" parent="1" source="M2eLKhpz11m8mpupI5gd-6" target="M2eLKhpz11m8mpupI5gd-1">
          <mxGeometry relative="1" as="geometry" />
        </mxCell>
        <mxCell id="M2eLKhpz11m8mpupI5gd-6" value="Sql" style="text;html=1;strokeColor=none;fillColor=none;align=center;verticalAlign=middle;whiteSpace=wrap;rounded=0;" vertex="1" parent="1">
          <mxGeometry x="245" y="50" width="40" height="20" as="geometry" />
        </mxCell>
        <mxCell id="M2eLKhpz11m8mpupI5gd-7" value="excuotr" style="rounded=0;whiteSpace=wrap;html=1;" vertex="1" parent="1">
          <mxGeometry x="525" y="320" width="120" height="60" as="geometry" />
        </mxCell>
        <mxCell id="M2eLKhpz11m8mpupI5gd-16" style="edgeStyle=orthogonalEdgeStyle;rounded=0;orthogonalLoop=1;jettySize=auto;html=1;" edge="1" parent="1" source="M2eLKhpz11m8mpupI5gd-8" target="M2eLKhpz11m8mpupI5gd-3">
          <mxGeometry relative="1" as="geometry">
            <Array as="points">
              <mxPoint x="625" y="210" />
            </Array>
          </mxGeometry>
        </mxCell>
        <mxCell id="M2eLKhpz11m8mpupI5gd-8" value="excuotr" style="rounded=0;whiteSpace=wrap;html=1;" vertex="1" parent="1">
          <mxGeometry x="615" y="310" width="120" height="60" as="geometry" />
        </mxCell>
        <mxCell id="M2eLKhpz11m8mpupI5gd-11" value="instanceId" style="text;html=1;align=center;verticalAlign=middle;resizable=0;points=[];autosize=1;strokeColor=none;" vertex="1" parent="1">
          <mxGeometry x="310" y="260" width="70" height="20" as="geometry" />
        </mxCell>
        <mxCell id="M2eLKhpz11m8mpupI5gd-12" value="Quota" style="text;html=1;align=center;verticalAlign=middle;resizable=0;points=[];autosize=1;strokeColor=#b85450;fillColor=#f8cecc;" vertex="1" parent="1">
          <mxGeometry x="320" y="100" width="50" height="20" as="geometry" />
        </mxCell>
        <mxCell id="M2eLKhpz11m8mpupI5gd-14" value="Queue" style="rounded=1;whiteSpace=wrap;html=1;" vertex="1" parent="1">
          <mxGeometry x="475" y="100" width="120" height="60" as="geometry" />
        </mxCell>
        <mxCell id="M2eLKhpz11m8mpupI5gd-15" value="Sql" style="text;html=1;strokeColor=none;fillColor=none;align=center;verticalAlign=middle;whiteSpace=wrap;rounded=0;" vertex="1" parent="1">
          <mxGeometry x="555" y="120" width="40" height="20" as="geometry" />
        </mxCell>
        <mxCell id="M2eLKhpz11m8mpupI5gd-17" value="task" style="rounded=1;whiteSpace=wrap;html=1;" vertex="1" parent="1">
          <mxGeometry x="565" y="170" width="30" height="40" as="geometry" />
        </mxCell>
        <mxCell id="M2eLKhpz11m8mpupI5gd-18" value="task" style="rounded=1;whiteSpace=wrap;html=1;" vertex="1" parent="1">
          <mxGeometry x="705" y="320" width="30" height="40" as="geometry" />
        </mxCell>
        <mxCell id="M2eLKhpz11m8mpupI5gd-22" value="" style="edgeStyle=orthogonalEdgeStyle;rounded=0;orthogonalLoop=1;jettySize=auto;html=1;" edge="1" parent="1" source="M2eLKhpz11m8mpupI5gd-19" target="M2eLKhpz11m8mpupI5gd-21">
          <mxGeometry relative="1" as="geometry" />
        </mxCell>
        <mxCell id="M2eLKhpz11m8mpupI5gd-27" value="" style="edgeStyle=orthogonalEdgeStyle;rounded=0;orthogonalLoop=1;jettySize=auto;html=1;" edge="1" parent="1" source="M2eLKhpz11m8mpupI5gd-19" target="M2eLKhpz11m8mpupI5gd-24">
          <mxGeometry relative="1" as="geometry" />
        </mxCell>
        <mxCell id="M2eLKhpz11m8mpupI5gd-19" value="task" style="rounded=1;whiteSpace=wrap;html=1;" vertex="1" parent="1">
          <mxGeometry x="485" y="420" width="30" height="20" as="geometry" />
        </mxCell>
        <mxCell id="M2eLKhpz11m8mpupI5gd-23" style="edgeStyle=orthogonalEdgeStyle;rounded=0;orthogonalLoop=1;jettySize=auto;html=1;entryX=1;entryY=0.5;entryDx=0;entryDy=0;" edge="1" parent="1" source="M2eLKhpz11m8mpupI5gd-21" target="M2eLKhpz11m8mpupI5gd-5">
          <mxGeometry relative="1" as="geometry">
            <Array as="points">
              <mxPoint x="483" y="330" />
            </Array>
          </mxGeometry>
        </mxCell>
        <mxCell id="M2eLKhpz11m8mpupI5gd-21" value="Fuxi (yarn + hdfs)" style="rounded=0;whiteSpace=wrap;html=1;" vertex="1" parent="1">
          <mxGeometry x="165" y="420" width="635" height="70" as="geometry" />
        </mxCell>
        <mxCell id="M2eLKhpz11m8mpupI5gd-24" value="" style="rounded=1;whiteSpace=wrap;html=1;" vertex="1" parent="1">
          <mxGeometry x="265" y="400" width="120" height="60" as="geometry" />
        </mxCell>
        <mxCell id="M2eLKhpz11m8mpupI5gd-25" value="task" style="rounded=1;whiteSpace=wrap;html=1;" vertex="1" parent="1">
          <mxGeometry x="595" y="200" width="30" height="40" as="geometry" />
        </mxCell>
        <mxCell id="M2eLKhpz11m8mpupI5gd-26" value="" style="rounded=1;whiteSpace=wrap;html=1;" vertex="1" parent="1">
          <mxGeometry x="435" y="400" width="120" height="60" as="geometry" />
        </mxCell>
        <mxCell id="M2eLKhpz11m8mpupI5gd-33" value="" style="edgeStyle=orthogonalEdgeStyle;rounded=0;orthogonalLoop=1;jettySize=auto;html=1;" edge="1" parent="1" source="M2eLKhpz11m8mpupI5gd-28" target="M2eLKhpz11m8mpupI5gd-32">
          <mxGeometry relative="1" as="geometry" />
        </mxCell>
        <mxCell id="M2eLKhpz11m8mpupI5gd-40" value="" style="edgeStyle=orthogonalEdgeStyle;rounded=0;orthogonalLoop=1;jettySize=auto;html=1;" edge="1" parent="1" source="M2eLKhpz11m8mpupI5gd-28" target="M2eLKhpz11m8mpupI5gd-5">
          <mxGeometry relative="1" as="geometry" />
        </mxCell>
        <mxCell id="M2eLKhpz11m8mpupI5gd-28" value="Quota" style="text;html=1;align=center;verticalAlign=middle;resizable=0;points=[];autosize=1;strokeColor=none;" vertex="1" parent="1">
          <mxGeometry x="85" y="320" width="50" height="20" as="geometry" />
        </mxCell>
        <mxCell id="M2eLKhpz11m8mpupI5gd-29" value="Quota" style="text;html=1;align=center;verticalAlign=middle;resizable=0;points=[];autosize=1;strokeColor=#666666;fillColor=#f5f5f5;fontColor=#333333;" vertex="1" parent="1">
          <mxGeometry x="75" y="480" width="50" height="20" as="geometry" />
        </mxCell>
        <mxCell id="M2eLKhpz11m8mpupI5gd-32" value="先，&lt;br&gt;权限&lt;br&gt;付费模式&lt;br&gt;公用" style="text;html=1;align=center;verticalAlign=middle;resizable=0;points=[];autosize=1;strokeColor=none;" vertex="1" parent="1">
          <mxGeometry x="80" y="200" width="60" height="60" as="geometry" />
        </mxCell>
        <mxCell id="M2eLKhpz11m8mpupI5gd-35" value="" style="shape=flexArrow;endArrow=classic;startArrow=classic;html=1;endWidth=30;endSize=3.33;" edge="1" parent="1">
          <mxGeometry width="100" height="100" relative="1" as="geometry">
            <mxPoint x="85" y="430" as="sourcePoint" />
            <mxPoint x="85" y="350" as="targetPoint" />
          </mxGeometry>
        </mxCell>
        <mxCell id="M2eLKhpz11m8mpupI5gd-36" value="一致性" style="text;html=1;align=center;verticalAlign=middle;resizable=0;points=[];autosize=1;strokeColor=none;" vertex="1" parent="1">
          <mxGeometry x="30" y="370" width="50" height="20" as="geometry" />
        </mxCell>
        <mxCell id="M2eLKhpz11m8mpupI5gd-37" value="" style="endArrow=classic;html=1;" edge="1" parent="1">
          <mxGeometry width="50" height="50" relative="1" as="geometry">
            <mxPoint x="435" y="300" as="sourcePoint" />
            <mxPoint x="485" y="250" as="targetPoint" />
          </mxGeometry>
        </mxCell>
        <mxCell id="M2eLKhpz11m8mpupI5gd-38" value="" style="endArrow=classic;html=1;" edge="1" parent="1">
          <mxGeometry width="50" height="50" relative="1" as="geometry">
            <mxPoint x="25" y="260" as="sourcePoint" />
            <mxPoint x="75" y="320" as="targetPoint" />
          </mxGeometry>
        </mxCell>
        <mxCell id="M2eLKhpz11m8mpupI5gd-39" value="" style="endArrow=classic;html=1;" edge="1" parent="1">
          <mxGeometry width="50" height="50" relative="1" as="geometry">
            <mxPoint x="25" y="260" as="sourcePoint" />
            <mxPoint x="45" y="460" as="targetPoint" />
          </mxGeometry>
        </mxCell>
        <mxCell id="M2eLKhpz11m8mpupI5gd-41" value="Actor" style="shape=umlActor;verticalLabelPosition=bottom;verticalAlign=top;html=1;outlineConnect=0;" vertex="1" parent="1">
          <mxGeometry y="170" width="30" height="60" as="geometry" />
        </mxCell>
        <mxCell id="M2eLKhpz11m8mpupI5gd-42" value="" style="rounded=1;whiteSpace=wrap;html=1;rotation=-45;fillColor=#f8cecc;strokeColor=#b85450;" vertex="1" parent="1">
          <mxGeometry x="-14.39" y="289.39" width="90" height="10" as="geometry" />
        </mxCell>
        <mxCell id="M2eLKhpz11m8mpupI5gd-43" value="Apche Calcite" style="text;html=1;strokeColor=#82b366;fillColor=#d5e8d4;align=center;verticalAlign=middle;whiteSpace=wrap;rounded=0;" vertex="1" parent="1">
          <mxGeometry x="485" y="570" width="60" height="30" as="geometry" />
        </mxCell>
        <mxCell id="M2eLKhpz11m8mpupI5gd-44" value="淘宝今年" style="text;html=1;strokeColor=none;fillColor=none;align=center;verticalAlign=middle;whiteSpace=wrap;rounded=0;" vertex="1" parent="1">
          <mxGeometry x="75" y="620" width="145" height="50" as="geometry" />
        </mxCell>
        <mxCell id="M2eLKhpz11m8mpupI5gd-51" value="" style="edgeStyle=orthogonalEdgeStyle;rounded=0;orthogonalLoop=1;jettySize=auto;html=1;" edge="1" parent="1" source="M2eLKhpz11m8mpupI5gd-45">
          <mxGeometry relative="1" as="geometry">
            <mxPoint x="255" y="740" as="targetPoint" />
          </mxGeometry>
        </mxCell>
        <mxCell id="M2eLKhpz11m8mpupI5gd-45" value="NLP、KG" style="text;html=1;strokeColor=#666666;fillColor=#f5f5f5;align=center;verticalAlign=middle;whiteSpace=wrap;rounded=0;fontColor=#333333;" vertex="1" parent="1">
          <mxGeometry x="212.5" y="630" width="85" height="30" as="geometry" />
        </mxCell>
        <mxCell id="M2eLKhpz11m8mpupI5gd-46" value="SQL" style="text;html=1;strokeColor=#82b366;fillColor=#d5e8d4;align=center;verticalAlign=middle;whiteSpace=wrap;rounded=0;" vertex="1" parent="1">
          <mxGeometry x="590" y="620" width="145" height="50" as="geometry" />
        </mxCell>
        <mxCell id="M2eLKhpz11m8mpupI5gd-49" style="edgeStyle=orthogonalEdgeStyle;rounded=0;orthogonalLoop=1;jettySize=auto;html=1;" edge="1" parent="1" source="M2eLKhpz11m8mpupI5gd-48" target="M2eLKhpz11m8mpupI5gd-46">
          <mxGeometry relative="1" as="geometry" />
        </mxCell>
        <mxCell id="M2eLKhpz11m8mpupI5gd-48" value="带有查询语言的json&lt;br&gt;&lt;br&gt;&lt;br&gt;&lt;br&gt;&lt;br&gt;tableInfo:&amp;nbsp;&lt;br&gt;joinTable:&lt;br&gt;joininof:&lt;br&gt;groupby:&lt;br&gt;having:{&lt;br&gt;colname: a&lt;br&gt;count&lt;br&gt;&amp;gt;&lt;br&gt;10&lt;br&gt;}" style="text;html=1;align=left;verticalAlign=middle;resizable=0;points=[];autosize=1;strokeColor=#6c8ebf;fillColor=#dae8fc;" vertex="1" parent="1">
          <mxGeometry x="330" y="535" width="120" height="220" as="geometry" />
        </mxCell>
        <mxCell id="M2eLKhpz11m8mpupI5gd-52" value="Calcite" style="rounded=1;whiteSpace=wrap;html=1;fillColor=#d5e8d4;strokeColor=#82b366;" vertex="1" parent="1">
          <mxGeometry x="485" y="190" width="55" height="40" as="geometry" />
        </mxCell>
        <mxCell id="M2eLKhpz11m8mpupI5gd-53" value="RexNode&amp;nbsp; (关系代数）" style="text;html=1;align=center;verticalAlign=middle;resizable=0;points=[];autosize=1;strokeColor=#82b366;fillColor=#d5e8d4;" vertex="1" parent="1">
          <mxGeometry x="10" y="780" width="140" height="20" as="geometry" />
        </mxCell>
        <mxCell id="M2eLKhpz11m8mpupI5gd-54" value="SQLNode&amp;nbsp; ast" style="text;html=1;align=center;verticalAlign=middle;resizable=0;points=[];autosize=1;strokeColor=#82b366;fillColor=#d5e8d4;" vertex="1" parent="1">
          <mxGeometry x="10" y="820" width="90" height="20" as="geometry" />
        </mxCell>
        <mxCell id="M2eLKhpz11m8mpupI5gd-55" value="Dialect&amp;nbsp;" style="text;html=1;align=center;verticalAlign=middle;resizable=0;points=[];autosize=1;strokeColor=#82b366;fillColor=#d5e8d4;" vertex="1" parent="1">
          <mxGeometry x="10" y="860" width="60" height="20" as="geometry" />
        </mxCell>
        <mxCell id="M2eLKhpz11m8mpupI5gd-56" value="SQL" style="text;html=1;align=center;verticalAlign=middle;resizable=0;points=[];autosize=1;strokeColor=#82b366;fillColor=#d5e8d4;" vertex="1" parent="1">
          <mxGeometry x="10" y="900" width="40" height="20" as="geometry" />
        </mxCell>
        <mxCell id="M2eLKhpz11m8mpupI5gd-57" value="LogicalPalan" style="text;html=1;align=center;verticalAlign=middle;resizable=0;points=[];autosize=1;" vertex="1" parent="1">
          <mxGeometry x="10" y="735" width="80" height="20" as="geometry" />
        </mxCell>
        <mxCell id="M2eLKhpz11m8mpupI5gd-58" value="MR" style="text;html=1;align=center;verticalAlign=middle;resizable=0;points=[];autosize=1;strokeColor=none;" vertex="1" parent="1">
          <mxGeometry x="25" y="680" width="30" height="20" as="geometry" />
        </mxCell>
        <mxCell id="M2eLKhpz11m8mpupI5gd-59" value="" style="edgeStyle=orthogonalEdgeStyle;rounded=0;orthogonalLoop=1;jettySize=auto;html=1;" edge="1" parent="1">
          <mxGeometry relative="1" as="geometry">
            <mxPoint x="390" y="760" as="sourcePoint" />
            <mxPoint x="170" y="790" as="targetPoint" />
            <Array as="points">
              <mxPoint x="390" y="790" />
            </Array>
          </mxGeometry>
        </mxCell>
        <mxCell id="M2eLKhpz11m8mpupI5gd-60" value="java&amp;nbsp;" style="text;html=1;align=center;verticalAlign=middle;resizable=0;points=[];autosize=1;strokeColor=none;" vertex="1" parent="1">
          <mxGeometry x="270" y="850" width="40" height="20" as="geometry" />
        </mxCell>
      </root>
    </mxGraphModel>
  </diagram>
</mxfile>
